<svg xmlns="http://www.w3.org/2000/svg" width="854" height="1842" viewBox="0 0 854 1842" role="img" aria-label="A2 top contour traced from artwork silhouette tight">
  <title>A2 top contour traced from artwork silhouette - tight</title>
  <desc>Single open vector path replacing only the top contour segment. It is generated from the placed artwork top silhouette, with clearance so the line does not pass through painted illustration pixels.</desc>
  <path id="a2_top_contour_art_silhouette_tight" d="M 62.00 433.00 L 64.00 439.11 L 66.00 444.57 L 68.00 449.02 L 70.00 452.14 L 72.00 454.18 L 74.00 455.14 L 76.00 455.12 L 78.00 454.05 L 80.00 436.99 L 82.00 416.35 L 84.00 392.49 L 86.00 366.27 L 88.00 270.00 L 90.00 267.00 L 92.00 254.00 L 94.00 253.00 L 96.00 252.00 L 98.00 188.00 L 100.00 172.00 L 102.00 172.00 L 104.00 172.00 L 106.00 174.00 L 108.00 175.00 L 110.00 177.00 L 112.00 180.00 L 114.00 182.00 L 116.00 185.00 L 118.00 187.00 L 120.00 190.00 L 122.00 192.00 L 124.00 192.90 L 126.00 194.22 L 128.00 196.14 L 130.00 197.74 L 132.00 199.27 L 134.00 200.00 L 136.00 199.09 L 138.00 195.91 L 140.00 191.64 L 142.00 186.55 L 144.00 181.36 L 146.00 177.27 L 148.00 174.36 L 150.00 172.64 L 152.00 172.00 L 154.00 172.55 L 156.00 174.00 L 158.00 176.00 L 160.00 178.00 L 162.00 180.00 L 164.00 182.00 L 166.00 182.45 L 168.00 180.55 L 170.00 177.09 L 172.00 172.18 L 174.00 165.82 L 176.00 157.82 L 178.00 149.64 L 180.00 141.27 L 182.00 132.82 L 184.00 124.18 L 186.00 113.45 L 188.00 101.73 L 190.00 91.09 L 192.00 82.00 L 194.00 74.55 L 196.00 69.91 L 198.00 68.00 L 200.00 71.27 L 202.00 77.82 L 204.00 85.82 L 206.00 95.36 L 208.00 106.36 L 210.00 117.18 L 212.00 126.55 L 214.00 134.91 L 216.00 143.27 L 218.00 151.55 L 220.00 159.73 L 222.00 167.82 L 224.00 175.73 L 226.00 183.18 L 228.00 189.09 L 230.00 193.36 L 232.00 196.00 L 234.00 197.18 L 236.00 192.18 L 238.00 181.18 L 240.00 169.82 L 242.00 158.00 L 244.00 145.64 L 246.00 132.73 L 248.00 128.82 L 250.00 124.82 L 252.00 120.64 L 254.00 116.18 L 256.00 111.36 L 258.00 106.27 L 260.00 100.82 L 262.00 95.09 L 264.00 88.82 L 266.00 82.36 L 268.00 75.55 L 270.00 68.27 L 272.00 58.27 L 274.00 47.36 L 276.00 35.45 L 278.00 24.91 L 280.00 15.82 L 282.00 9.55 L 284.00 5.00 L 286.00 5.00 L 288.00 7.55 L 290.00 12.09 L 292.00 20.00 L 294.00 29.27 L 296.00 39.82 L 298.00 51.09 L 300.00 59.82 L 302.00 67.73 L 304.00 74.36 L 306.00 80.64 L 308.00 86.73 L 310.00 92.73 L 312.00 98.45 L 314.00 103.82 L 316.00 109.00 L 318.00 113.91 L 320.00 118.27 L 322.00 122.36 L 324.00 126.27 L 326.00 130.18 L 328.00 136.64 L 330.00 141.45 L 332.00 145.00 L 334.00 146.73 L 336.00 146.73 L 338.00 144.55 L 340.00 136.36 L 342.00 127.73 L 344.00 119.64 L 346.00 112.64 L 348.00 106.82 L 350.00 102.45 L 352.00 101.00 L 354.00 104.55 L 356.00 109.55 L 358.00 115.73 L 360.00 123.09 L 362.00 131.45 L 364.00 138.82 L 366.00 143.36 L 368.00 146.73 L 370.00 148.82 L 372.00 149.82 L 374.00 150.00 L 376.00 149.55 L 378.00 148.27 L 380.00 146.82 L 382.00 145.27 L 384.00 143.64 L 386.00 141.73 L 388.00 141.09 L 390.00 140.55 L 392.00 140.00 L 394.00 139.64 L 396.00 139.36 L 398.00 139.18 L 400.00 139.00 L 402.00 139.27 L 404.00 140.00 L 406.00 143.09 L 408.00 146.18 L 410.00 149.09 L 412.00 150.36 L 414.00 149.55 L 416.00 147.18 L 418.00 143.73 L 420.00 140.36 L 422.00 137.00 L 424.00 137.00 L 426.00 137.00 L 428.00 137.00 L 430.00 137.00 L 432.00 137.00 L 434.00 137.00 L 436.00 137.00 L 438.00 137.00 L 440.00 137.36 L 442.00 140.64 L 444.00 144.00 L 446.00 147.45 L 448.00 149.73 L 450.00 150.27 L 452.00 148.73 L 454.00 145.82 L 456.00 142.73 L 458.00 139.64 L 460.00 139.00 L 462.00 139.00 L 464.00 139.18 L 466.00 139.36 L 468.00 139.64 L 470.00 140.00 L 472.00 140.55 L 474.00 141.00 L 476.00 141.64 L 478.00 143.00 L 480.00 144.64 L 482.00 146.18 L 484.00 147.64 L 486.00 149.00 L 488.00 150.00 L 490.00 149.55 L 492.00 148.09 L 494.00 145.36 L 496.00 141.18 L 498.00 134.00 L 500.00 125.18 L 502.00 117.18 L 504.00 110.36 L 506.00 104.91 L 508.00 101.00 L 510.00 101.55 L 512.00 105.73 L 514.00 111.18 L 516.00 117.73 L 518.00 125.45 L 520.00 133.91 L 522.00 140.82 L 524.00 142.73 L 526.00 142.73 L 528.00 140.82 L 530.00 137.18 L 532.00 131.91 L 534.00 126.64 L 536.00 122.18 L 538.00 117.55 L 540.00 112.64 L 542.00 107.45 L 544.00 101.91 L 546.00 96.00 L 548.00 89.73 L 550.00 83.18 L 552.00 76.36 L 554.00 69.18 L 556.00 60.64 L 558.00 51.27 L 560.00 39.64 L 562.00 28.91 L 564.00 19.55 L 566.00 11.55 L 568.00 7.27 L 570.00 5.00 L 572.00 5.00 L 574.00 9.45 L 576.00 16.73 L 578.00 25.36 L 580.00 35.27 L 582.00 46.45 L 584.00 56.55 L 586.00 64.73 L 588.00 71.64 L 590.00 78.45 L 592.00 85.00 L 594.00 91.27 L 596.00 97.27 L 598.00 103.09 L 600.00 108.45 L 602.00 113.55 L 604.00 118.36 L 606.00 122.82 L 608.00 127.09 L 610.00 131.18 L 612.00 144.55 L 614.00 157.36 L 616.00 169.73 L 618.00 181.82 L 620.00 193.55 L 622.00 204.00 L 624.00 216.73 L 626.00 224.09 L 628.00 230.36 L 630.00 235.55 L 632.00 239.45 L 634.00 230.45 L 636.00 225.64 L 638.00 220.45 L 640.00 214.82 L 642.00 208.64 L 644.00 202.18 L 646.00 195.27 L 648.00 188.09 L 650.00 180.45 L 652.00 172.55 L 654.00 164.18 L 656.00 155.73 L 658.00 147.18 L 660.00 138.45 L 662.00 129.73 L 664.00 118.45 L 666.00 106.00 L 668.00 94.55 L 670.00 84.64 L 672.00 76.36 L 674.00 70.64 L 676.00 69.00 L 678.00 72.64 L 680.00 79.27 L 682.00 88.00 L 684.00 98.36 L 686.00 110.27 L 688.00 122.18 L 690.00 132.00 L 692.00 140.18 L 694.00 148.18 L 696.00 155.91 L 698.00 163.36 L 700.00 170.73 L 702.00 177.91 L 704.00 184.82 L 706.00 191.64 L 708.00 198.27 L 710.00 204.45 L 712.00 210.27 L 714.00 216.00 L 716.00 221.18 L 718.00 226.09 L 720.00 235.55 L 722.00 249.55 L 724.00 263.96 L 726.00 277.78 L 728.00 290.96 L 730.00 303.71 L 732.00 306.00 L 734.00 315.82 L 736.00 326.00 L 738.00 336.16 L 740.00 346.23 L 742.00 355.94 L 744.00 355.00 L 746.00 371.95 L 748.00 382.45 L 750.00 395.43 L 752.00 411.48 L 754.00 426.82 L 756.00 442.38 L 758.00 465.63 L 760.00 483.01 L 762.00 491.65 L 764.00 498.22 L 766.00 502.01 L 768.00 497.77 L 770.00 489.64 L 772.00 484.43 L 774.00 482.26 L 776.00 480.96 L 778.00 479.31 L 780.00 477.03 L 782.00 473.78 L 784.00 468.83 L 786.00 461.83 L 788.00 453.19 L 790.00 443.48 L 792.00 433.00" fill="none" stroke="rgb(0, 96, 255)" stroke-width="5" stroke-linecap="round" stroke-linejoin="round" />
</svg>
