<svg xmlns="http://www.w3.org/2000/svg" width="854" height="1842" viewBox="0 0 854 1842" role="img" aria-label="A2 top sub-panel contour ref-a">
  <title>A2 top sub-panel contour ref-a</title>
  <desc>Single open vector path alternative. Coordinates align to the A2 placed artwork/review image. No template guide lines are included.</desc>
  <path id="a2_top_subpanel_contour_ref_a" d="M 62.0 668.0 C 63.4 655.3, 68.4 604.1, 72.0 575.0 C 75.6 545.9, 83.4 493.3, 88.0 455.0 C 92.6 416.7, 100.8 327.1, 106.0 295.0 C 111.2 262.9, 118.9 236.5, 126.0 220.0 C 133.1 203.5, 148.6 184.1, 158.0 174.0 C 167.4 163.9, 186.1 158.6, 195.0 146.0 C 203.9 133.4, 215.5 79.5, 223.0 82.0 C 230.5 84.5, 241.8 174.1, 250.0 164.0 C 258.2 153.9, 273.7 26.3, 283.0 8.0 C 292.3 -10.3, 309.4 12.6, 318.0 30.0 C 326.6 47.4, 337.3 123.4, 346.0 135.0 C 354.7 146.6, 370.5 117.3, 382.0 115.0 C 393.5 112.7, 415.2 117.9, 430.0 118.0 C 444.8 118.1, 476.9 119.6, 490.0 116.0 C 503.1 112.4, 515.1 107.9, 526.0 92.0 C 536.9 76.1, 558.2 -4.1, 570.0 0.0 C 581.8 4.1, 601.1 101.0, 612.0 122.0 C 622.9 143.0, 640.4 160.3, 650.0 154.0 C 659.6 147.7, 673.0 79.3, 682.0 76.0 C 691.0 72.7, 707.8 101.4, 716.0 130.0 C 724.2 158.6, 735.7 233.1, 742.0 285.0 C 748.3 336.9, 756.1 463.9, 762.0 510.0 C 767.9 556.1, 779.5 600.8, 785.0 622.0 C 790.5 643.2, 799.7 659.1, 802.0 665.0" fill="none" stroke="#111111" stroke-width="5" stroke-linecap="round" stroke-linejoin="round" />
</svg>
