<svg xmlns="http://www.w3.org/2000/svg" width="854" height="1842" viewBox="0 0 854 1842" role="img" aria-label="A2 top sub-panel contour path">
  <title>A2 top sub-panel contour</title>
  <desc>Single vector path for the A2 top sub-panel contour. Coordinates align to the A2 placed artwork/review image. No template guide lines are included.</desc>
  <path id="a2_top_subpanel_contour" d="M 62 668 C 63.83 656.33, 68.17 627.17, 73 598 C 77.83 568.83, 84.83 525.67, 91 493 C 97.17 460.33, 104 445.83, 110 402 C 116 358.17, 120.17 257.83, 127 230 C 133.83 202.17, 142.83 231.83, 151 235 C 159.17 238.17, 168 256.33, 176 249 C 184 241.67, 191.17 218.5, 199 191 C 206.83 163.5, 215.17 87.5, 223 84 C 230.83 80.5, 238.67 144, 246 170 C 253.33 196, 260.33 229, 267 240 C 273.67 251, 280 272.67, 286 236 C 292 199.33, 295 21.17, 303 20 C 311 18.83, 323.67 206.67, 334 229 C 344.33 251.33, 355 153.5, 365 154 C 375 154.5, 383 220.17, 394 232 C 405 243.83, 418.67 226.17, 431 225 C 443.33 223.83, 455.33 223.5, 468 225 C 480.67 226.5, 496.5 245.17, 507 234 C 517.5 222.83, 520.83 192.33, 531 158 C 541.17 123.67, 555.5 17, 568 28 C 580.5 39, 594.83 189.5, 606 224 C 617.17 258.5, 626.5 237.83, 635 235 C 643.5 232.17, 649.33 230.17, 657 207 C 664.67 183.83, 672.83 99.83, 681 96 C 689.17 92.17, 698.17 156, 706 184 C 713.83 212, 721 226.17, 728 264 C 735 301.83, 742.5 358.67, 748 411 C 753.5 463.33, 755.5 544, 761 578 C 766.5 612, 774.17 600.5, 781 615 C 787.83 629.5, 798.5 656.67, 802 665" fill="none" stroke="#111111" stroke-width="5" stroke-linecap="round" stroke-linejoin="round"/>
</svg>
