<svg xmlns="http://www.w3.org/2000/svg" viewBox="0 0 1724.10 1617.54" width="1724.10" height="1617.54">
<style>.cut{fill:none;stroke:#ed1f79;stroke-width:3}.hole{fill:none;stroke:#231f20;stroke-width:3}</style>
<path class="cut" d="M 1655.63,1577.54 L 1657.30,1577.49 L 1658.95,1577.35 L 1660.57,1577.11 L 1662.16,1576.79 L 1663.71,1576.38 L 1665.23,1575.88 L 1666.71,1575.30 L 1668.15,1574.65 L 1669.54,1573.91 L 1670.89,1573.11 L 1672.19,1572.23 L 1673.44,1571.28 L 1674.63,1570.27 L 1675.76,1569.20 L 1676.83,1568.07 L 1677.84,1566.88 L 1678.79,1565.63 L 1679.67,1564.33 L 1680.47,1562.98 L 1681.21,1561.59 L 1681.86,1560.15 L 1682.44,1558.67 L 1682.94,1557.15 L 1683.35,1555.60 L 1683.67,1554.01 L 1683.91,1552.39 L 1684.05,1550.74 L 1684.10,1549.07 L 1684.10,1044.50 L 1684.07,1039.12 L 1683.97,1033.75 L 1683.81,1028.38 L 1683.59,1023.01 L 1683.30,1017.65 L 1682.95,1012.29 L 1682.53,1006.94 L 1682.05,1001.60 L 1681.51,996.26 L 1680.90,990.93 L 1680.23,985.61 L 1679.50,980.30 L 1678.70,975.00 L 1677.84,969.71 L 1676.92,964.43 L 1675.93,959.16 L 1674.88,953.90 L 1673.77,948.65 L 1672.60,943.42 L 1671.36,938.20 L 1670.06,933.00 L 1668.70,927.80 L 1667.28,922.63 L 1665.79,917.47 L 1664.25,912.33 L 1662.64,907.20 L 1660.96,902.09 L 1659.23,897.00 L 1376.42,82.12 L 1375.43,79.45 L 1374.32,76.85 L 1373.11,74.31 L 1371.79,71.85 L 1370.36,69.45 L 1368.84,67.14 L 1367.23,64.90 L 1365.52,62.74 L 1363.73,60.66 L 1361.85,58.67 L 1359.89,56.77 L 1357.85,54.95 L 1355.73,53.23 L 1353.54,51.60 L 1351.29,50.07 L 1348.96,48.64 L 1346.58,47.30 L 1344.14,46.08 L 1341.64,44.95 L 1339.09,43.94 L 1336.49,43.03 L 1333.85,42.24 L 1331.16,41.57 L 1328.43,41.01 L 1325.67,40.57 L 1322.88,40.26 L 1320.06,40.06 L 1317.21,40.00 L 1229.18,40.00 L 1227.89,40.03 L 1226.61,40.12 L 1225.34,40.26 L 1224.09,40.46 L 1222.85,40.71 L 1221.63,41.02 L 1220.43,41.38 L 1219.25,41.79 L 1218.10,42.25 L 1216.97,42.76 L 1215.86,43.32 L 1214.78,43.93 L 1213.73,44.58 L 1212.70,45.28 L 1211.71,46.02 L 1210.75,46.80 L 1209.83,47.63 L 1208.94,48.49 L 1208.09,49.40 L 1207.28,50.34 L 1206.51,51.32 L 1205.78,52.34 L 1205.09,53.39 L 1204.45,54.48 L 1203.85,55.60 L 1203.30,56.75 L 1202.81,57.94 L 1202.36,59.15 L 1161.33,178.61 L 1160.81,180.00 L 1160.23,181.34 L 1159.59,182.65 L 1158.88,183.90 L 1158.12,185.12 L 1157.30,186.28 L 1156.42,187.40 L 1155.50,188.47 L 1154.52,189.49 L 1153.50,190.46 L 1152.44,191.37 L 1151.33,192.23 L 1150.18,193.03 L 1149.00,193.78 L 1147.78,194.46 L 1146.53,195.08 L 1145.24,195.65 L 1143.93,196.15 L 1142.60,196.58 L 1141.24,196.95 L 1139.86,197.25 L 1138.46,197.48 L 1137.04,197.65 L 1135.61,197.74 L 1134.17,197.76 L 1132.71,197.70 L 1131.25,197.57 L 1129.79,197.36 L 791.08,140.16 L 789.99,139.95 L 788.91,139.71 L 787.85,139.42 L 786.81,139.09 L 785.78,138.73 L 784.77,138.32 L 783.78,137.88 L 782.81,137.41 L 781.86,136.89 L 780.93,136.35 L 780.02,135.76 L 779.14,135.15 L 778.29,134.50 L 777.45,133.82 L 776.65,133.11 L 775.87,132.37 L 775.12,131.60 L 774.40,130.80 L 773.71,129.98 L 773.05,129.12 L 772.42,128.24 L 771.82,127.34 L 771.26,126.41 L 770.73,125.45 L 770.24,124.48 L 769.78,123.47 L 769.36,122.45 L 768.98,121.41 L 747.60,59.15 L 747.15,57.94 L 746.66,56.75 L 746.11,55.60 L 745.51,54.48 L 744.87,53.39 L 744.18,52.34 L 743.45,51.32 L 742.68,50.34 L 741.87,49.40 L 741.02,48.49 L 740.13,47.63 L 739.21,46.80 L 738.25,46.02 L 737.26,45.28 L 736.23,44.58 L 735.18,43.93 L 734.10,43.32 L 732.99,42.76 L 731.86,42.25 L 730.71,41.79 L 729.53,41.38 L 728.33,41.02 L 727.11,40.71 L 725.87,40.46 L 724.62,40.26 L 723.35,40.12 L 722.07,40.03 L 720.78,40.00 L 620.21,40.00 L 617.56,40.04 L 614.91,40.15 L 612.28,40.35 L 609.66,40.61 L 607.05,40.96 L 604.46,41.37 L 601.89,41.87 L 599.34,42.43 L 596.80,43.07 L 594.29,43.78 L 591.80,44.56 L 589.34,45.41 L 586.90,46.33 L 584.49,47.32 L 582.11,48.38 L 579.76,49.50 L 577.45,50.70 L 575.16,51.96 L 572.92,53.28 L 570.71,54.68 L 568.53,56.13 L 566.40,57.65 L 564.31,59.24 L 562.26,60.89 L 560.26,62.59 L 558.30,64.37 L 556.39,66.20 L 554.53,68.09 L 75.57,569.50 L 73.16,572.09 L 70.83,574.74 L 68.58,577.45 L 66.41,580.21 L 64.32,583.02 L 62.31,585.89 L 60.38,588.80 L 58.53,591.76 L 56.77,594.77 L 55.09,597.82 L 53.50,600.92 L 51.99,604.05 L 50.56,607.23 L 49.22,610.44 L 47.97,613.68 L 46.81,616.96 L 45.74,620.27 L 44.75,623.61 L 43.86,626.98 L 43.06,630.37 L 42.35,633.79 L 41.73,637.23 L 41.20,640.69 L 40.77,644.17 L 40.44,647.67 L 40.19,651.18 L 40.05,654.70 L 40.00,658.24 L 40.00,783.51 L 40.03,784.80 L 40.12,786.08 L 40.26,787.35 L 40.46,788.60 L 40.71,789.84 L 41.02,791.06 L 41.38,792.26 L 41.79,793.44 L 42.25,794.59 L 42.76,795.72 L 43.32,796.83 L 43.93,797.91 L 44.58,798.96 L 45.28,799.99 L 46.02,800.98 L 46.80,801.94 L 47.63,802.86 L 48.49,803.75 L 49.40,804.60 L 50.34,805.41 L 51.32,806.18 L 52.34,806.91 L 53.39,807.60 L 54.48,808.24 L 55.60,808.84 L 56.75,809.39 L 57.94,809.88 L 59.15,810.33 L 108.20,827.18 L 109.41,827.63 L 110.60,828.12 L 111.75,828.67 L 112.87,829.27 L 113.96,829.91 L 115.01,830.60 L 116.03,831.33 L 117.01,832.10 L 117.95,832.91 L 118.86,833.76 L 119.72,834.65 L 120.55,835.57 L 121.33,836.53 L 122.07,837.52 L 122.77,838.55 L 123.42,839.60 L 124.03,840.68 L 124.59,841.79 L 125.10,842.92 L 125.56,844.07 L 125.97,845.25 L 126.33,846.45 L 126.64,847.67 L 126.89,848.91 L 127.09,850.16 L 127.23,851.43 L 127.32,852.71 L 127.35,854.00 L 127.35,1244.56 L 127.32,1245.85 L 127.23,1247.13 L 127.09,1248.40 L 126.89,1249.65 L 126.64,1250.89 L 126.33,1252.11 L 125.97,1253.31 L 125.56,1254.49 L 125.10,1255.64 L 124.59,1256.77 L 124.03,1257.88 L 123.42,1258.96 L 122.77,1260.01 L 122.07,1261.04 L 121.33,1262.03 L 120.55,1262.99 L 119.72,1263.91 L 118.86,1264.80 L 117.95,1265.65 L 117.01,1266.46 L 116.03,1267.23 L 115.01,1267.96 L 113.96,1268.65 L 112.87,1269.29 L 111.75,1269.89 L 110.60,1270.44 L 109.41,1270.93 L 108.20,1271.38 L 59.15,1288.23 L 57.94,1288.68 L 56.75,1289.17 L 55.60,1289.72 L 54.48,1290.32 L 53.39,1290.96 L 52.34,1291.65 L 51.32,1292.38 L 50.34,1293.15 L 49.40,1293.96 L 48.49,1294.81 L 47.63,1295.70 L 46.80,1296.62 L 46.02,1297.58 L 45.28,1298.57 L 44.58,1299.60 L 43.93,1300.65 L 43.32,1301.73 L 42.76,1302.84 L 42.25,1303.97 L 41.79,1305.12 L 41.38,1306.30 L 41.02,1307.50 L 40.71,1308.72 L 40.46,1309.96 L 40.26,1311.21 L 40.12,1312.48 L 40.03,1313.76 L 40.00,1315.05 L 40.00,1549.07 L 40.05,1550.74 L 40.19,1552.39 L 40.43,1554.01 L 40.75,1555.60 L 41.16,1557.15 L 41.66,1558.67 L 42.24,1560.15 L 42.89,1561.59 L 43.63,1562.98 L 44.43,1564.33 L 45.31,1565.63 L 46.26,1566.88 L 47.27,1568.07 L 48.34,1569.20 L 49.47,1570.27 L 50.66,1571.28 L 51.91,1572.23 L 53.21,1573.11 L 54.56,1573.91 L 55.95,1574.65 L 57.39,1575.30 L 58.87,1575.88 L 60.39,1576.38 L 61.94,1576.79 L 63.53,1577.11 L 65.15,1577.35 L 66.80,1577.49 L 68.47,1577.54 L 1655.63,1577.54 Z"/>
<path class="hole" d="M 921.10,1577.54 L 920.43,1577.52 L 919.77,1577.46 L 919.12,1577.37 L 918.48,1577.24 L 917.86,1577.07 L 917.25,1576.87 L 916.65,1576.64 L 916.08,1576.38 L 915.52,1576.09 L 914.98,1575.76 L 914.46,1575.41 L 913.96,1575.03 L 913.48,1574.63 L 913.02,1574.20 L 912.59,1573.74 L 912.19,1573.26 L 911.81,1572.76 L 911.46,1572.24 L 911.13,1571.70 L 910.84,1571.14 L 910.58,1570.57 L 910.35,1569.97 L 910.15,1569.36 L 909.98,1568.74 L 909.85,1568.10 L 909.76,1567.45 L 909.70,1566.79 L 909.68,1566.12 L 909.68,1336.60 L 909.32,1336.60 L 908.29,1336.60 L 906.63,1336.60 L 904.40,1336.60 L 901.65,1336.60 L 898.43,1336.60 L 894.80,1336.60 L 890.80,1336.60 L 886.49,1336.60 L 881.91,1336.60 L 877.13,1336.60 L 872.19,1336.60 L 867.15,1336.60 L 862.06,1336.60 L 856.97,1336.60 L 851.93,1336.60 L 846.99,1336.60 L 842.21,1336.60 L 837.63,1336.60 L 833.32,1336.60 L 829.32,1336.60 L 825.69,1336.60 L 822.47,1336.60 L 819.72,1336.60 L 817.49,1336.60 L 815.83,1336.60 L 814.80,1336.60 L 814.44,1336.60 L 814.44,1566.12 L 814.42,1566.79 L 814.36,1567.45 L 814.27,1568.10 L 814.14,1568.74 L 813.97,1569.36 L 813.77,1569.97 L 813.54,1570.57 L 813.28,1571.14 L 812.99,1571.70 L 812.66,1572.24 L 812.31,1572.76 L 811.93,1573.26 L 811.53,1573.74 L 811.10,1574.20 L 810.64,1574.63 L 810.16,1575.03 L 809.66,1575.41 L 809.14,1575.76 L 808.60,1576.09 L 808.04,1576.38 L 807.47,1576.64 L 806.87,1576.87 L 806.26,1577.07 L 805.64,1577.24 L 805.00,1577.37 L 804.35,1577.46 L 803.69,1577.52 L 803.02,1577.54 L 921.10,1577.54 Z"/>
<path class="hole" d="M 645.85,283.76 L 670.82,356.40 L 671.21,357.61 L 671.53,358.82 L 671.81,360.04 L 672.02,361.27 L 672.19,362.50 L 672.29,363.73 L 672.35,364.95 L 672.35,366.18 L 672.29,367.40 L 672.19,368.62 L 672.03,369.82 L 671.82,371.02 L 671.56,372.21 L 671.25,373.38 L 670.88,374.54 L 670.47,375.68 L 670.01,376.81 L 669.50,377.92 L 668.95,379.00 L 668.34,380.06 L 667.69,381.10 L 666.99,382.11 L 666.24,383.09 L 665.45,384.04 L 664.62,384.96 L 663.73,385.85 L 662.81,386.70 L 661.84,387.52 L 253.26,716.47 L 251.91,717.49 L 250.52,718.42 L 249.10,719.26 L 247.64,720.00 L 246.15,720.65 L 244.64,721.21 L 243.11,721.69 L 241.56,722.07 L 240.00,722.36 L 238.43,722.56 L 236.86,722.67 L 235.28,722.70 L 233.70,722.64 L 232.14,722.49 L 230.58,722.25 L 229.04,721.93 L 227.52,721.53 L 226.01,721.03 L 224.54,720.46 L 223.09,719.79 L 221.68,719.05 L 220.31,718.22 L 218.98,717.31 L 217.70,716.32 L 216.46,715.24 L 215.28,714.08 L 214.16,712.85 L 213.10,711.53 L 213.10,711.53 L 212.24,710.33 L 211.45,709.10 L 210.73,707.84 L 210.09,706.56 L 209.51,705.25 L 209.00,703.93 L 208.56,702.58 L 208.19,701.22 L 207.89,699.85 L 207.66,698.47 L 207.50,697.08 L 207.41,695.69 L 207.39,694.29 L 207.43,692.90 L 207.55,691.51 L 207.73,690.13 L 207.98,688.75 L 208.30,687.39 L 208.68,686.05 L 209.14,684.72 L 209.66,683.41 L 210.25,682.12 L 210.91,680.86 L 211.63,679.63 L 212.42,678.43 L 213.28,677.26 L 214.20,676.13 L 215.19,675.04 L 598.80,273.45 L 600.40,271.89 L 602.08,270.49 L 603.83,269.25 L 605.64,268.16 L 607.50,267.23 L 609.40,266.44 L 611.34,265.80 L 613.31,265.32 L 615.29,264.97 L 617.29,264.78 L 619.29,264.72 L 621.28,264.80 L 623.26,265.02 L 625.22,265.38 L 627.15,265.88 L 629.04,266.50 L 630.89,267.26 L 632.68,268.15 L 634.41,269.16 L 636.07,270.31 L 637.65,271.57 L 639.15,272.96 L 640.55,274.47 L 641.85,276.10 L 643.03,277.84 L 644.10,279.70 L 645.04,281.67 L 645.85,283.76 Z"/>
<path class="hole" d="M 1326.29,326.15 L 1325.85,332.80 L 1324.55,339.33 L 1322.41,345.64 L 1319.47,351.61 L 1315.77,357.15 L 1311.38,362.16 L 1306.37,366.55 L 1300.83,370.25 L 1294.86,373.19 L 1288.55,375.33 L 1282.02,376.63 L 1275.37,377.07 L 1268.72,376.63 L 1262.19,375.33 L 1255.88,373.19 L 1249.91,370.25 L 1244.37,366.55 L 1239.36,362.16 L 1234.97,357.15 L 1231.27,351.61 L 1228.33,345.64 L 1226.19,339.33 L 1224.89,332.80 L 1224.45,326.15 L 1224.89,319.50 L 1226.19,312.97 L 1228.33,306.66 L 1231.27,300.69 L 1234.97,295.15 L 1239.36,290.14 L 1244.37,285.75 L 1249.91,282.05 L 1255.88,279.11 L 1262.19,276.97 L 1268.72,275.67 L 1275.37,275.23 L 1282.02,275.67 L 1288.55,276.97 L 1294.86,279.11 L 1300.83,282.05 L 1306.37,285.75 L 1311.38,290.14 L 1315.77,295.15 L 1319.47,300.69 L 1322.41,306.66 L 1324.55,312.97 L 1325.85,319.50 L 1326.29,326.15 Z"/>
<path class="hole" d="M 1304.97,678.68 L 1303.84,695.85 L 1300.49,712.72 L 1294.96,729.01 L 1287.35,744.44 L 1277.79,758.75 L 1266.45,771.69 L 1253.51,783.03 L 1239.21,792.59 L 1223.77,800.20 L 1207.48,805.73 L 1190.61,809.08 L 1173.44,810.21 L 1156.27,809.08 L 1139.40,805.73 L 1123.11,800.20 L 1107.68,792.59 L 1093.37,783.03 L 1080.43,771.69 L 1069.09,758.75 L 1059.53,744.44 L 1051.92,729.01 L 1046.39,712.72 L 1043.04,695.85 L 1041.91,678.68 L 1043.04,661.51 L 1046.39,644.64 L 1051.92,628.35 L 1059.53,612.91 L 1069.09,598.61 L 1080.43,585.67 L 1093.37,574.33 L 1107.68,564.77 L 1123.11,557.16 L 1139.40,551.63 L 1156.27,548.28 L 1173.44,547.15 L 1190.61,548.28 L 1207.48,551.63 L 1223.77,557.16 L 1239.21,564.77 L 1253.51,574.33 L 1266.45,585.67 L 1277.79,598.61 L 1287.35,612.91 L 1294.96,628.35 L 1300.49,644.64 L 1303.84,661.51 L 1304.97,678.68 Z"/>
</svg>