<?xml version="1.0" encoding="iso-8859-1"?>
<svg version="1.1" xmlns="http://www.w3.org/2000/svg" xmlns:xlink="http://www.w3.org/1999/xlink" viewBox="0.0 0.0 797.2411 2622.3853" xml:space="preserve">
<polygon style="fill:none;stroke:#FFDB55;stroke-width:10;stroke-miterlimit:10;stroke-dasharray:24;" points="25.7412,2602.2896 25.4042,2602.2798 25.0724,2602.2509 24.7461,2602.2034 24.4260,2602.1378 24.1126,2602.0546 23.8064,2601.9545 23.5081,2601.8379 23.2180,2601.7055 22.9368,2601.5576 22.6651,2601.3950 22.4033,2601.2180 22.1520,2601.0274 21.9117,2600.8235 21.6830,2600.6070 21.4664,2600.3784 21.2625,2600.1382 21.0717,2599.8870 20.8948,2599.6253 20.7321,2599.3537 20.5842,2599.0726 20.4517,2598.7828 20.3351,2598.4846 20.2350,2598.1786 20.1518,2597.8654 20.0862,2597.5456 20.0387,2597.2196 20.0098,2596.8880 20.0000,2596.5513 20.0000,28.5059 20.0145,28.0069 20.0573,27.5154 20.1278,27.0322 20.2250,26.5581 20.3482,26.0938 20.4966,25.6404 20.6694,25.1984 20.8658,24.7687 21.0849,24.3522 21.3260,23.9496 21.5882,23.5617 21.8708,23.1894 22.1730,22.8334 22.4939,22.4945 22.8327,22.1736 23.1887,21.8714 23.5610,21.5888 23.9489,21.3265 24.3515,21.0854 24.7680,20.8663 25.1976,20.6700 25.6396,20.4972 26.0930,20.3488 26.5572,20.2255 27.0313,20.1283 27.5145,20.0578 28.0059,20.0150 28.5049,20.0005 215.3281,20.0005 217.0564,22.5784 218.9529,25.4071 221.0000,28.4606 223.1804,31.7129 225.4767,35.1379 227.8713,38.7097 230.3469,42.4023 232.8860,46.1897 235.4713,50.0458 238.0852,53.9446 240.7103,57.8602 243.3292,61.7666 245.9244,65.6377 248.4786,69.4475 250.9743,73.1700 253.3940,76.7792 255.7203,80.2492 257.9358,83.5538 260.0230,86.6671 261.9646,89.5632 263.7430,92.2159 265.3409,94.5993 266.7408,96.6874 267.9253,98.4541 268.8768,99.8735 269.5781,100.9196 270.0117,101.5663 270.1601,101.7876 271.4408,103.6267 272.7796,105.4111 274.1746,107.1400 275.6243,108.8124 277.1269,110.4274 278.6806,111.9841 280.2837,113.4815 281.9345,114.9187 283.6313,116.2948 285.3722,117.6089 287.1556,118.8600 288.9798,120.0472 290.8430,121.1697 292.7435,122.2264 294.6795,123.2165 296.6494,124.1390 298.6513,124.9930 300.6837,125.7776 302.7446,126.4919 304.8325,127.1349 306.9455,127.7057 309.0819,128.2034 311.2401,128.6270 313.4182,128.9757 315.6146,129.2486 317.8274,129.4446 320.0551,129.5629 322.2958,129.6025 324.5365,129.5629 326.7642,129.4446 328.9770,129.2486 331.1734,128.9757 333.3515,128.6270 335.5097,128.2034 337.6461,127.7057 339.7592,127.1349 341.8470,126.4919 343.9080,125.7776 345.9403,124.9930 347.9422,124.1390 349.9121,123.2165 351.8482,122.2264 353.7486,121.1697 355.6118,120.0472 357.4360,118.8600 359.2194,117.6089 360.9604,116.2948 362.6571,114.9187 364.3079,113.4815 365.9110,111.9841 367.4647,110.4274 368.9673,108.8124 370.4170,107.1400 371.8121,105.4111 373.1508,103.6267 374.4315,101.7876 429.2646,20.0000 754.4277,20.0005 754.4277,1311.1157 758.8095,1315.4975 754.4394,1319.8686 754.4394,2602.3852 25.7412,2602.2896"/>  <!-- outer (verbatim) -->
</svg>
